<svg width="61" height="61" viewBox="0 0 61 61" fill="none" xmlns="http://www.w3.org/2000/svg">
<path d="M60 30.7227C60 34.5967 59.237 38.4327 57.7544 42.0118C56.2719 45.5909 54.099 48.843 51.3596 51.5823C48.6203 54.3216 45.3683 56.4946 41.7892 57.9771C38.2101 59.4596 34.374 60.2227 30.5 60.2227C26.626 60.2227 22.7899 59.4596 19.2108 57.9771C15.6317 56.4946 12.3797 54.3216 9.64035 51.5823C6.90102 48.843 4.72807 45.5909 3.24555 42.0118C1.76304 38.4327 1 34.5967 1 30.7227C1 22.8988 4.10803 15.3953 9.64035 9.86301C15.1727 4.33068 22.6761 1.22266 30.5 1.22266C38.3239 1.22266 45.8273 4.33068 51.3596 9.86301C56.892 15.3953 60 22.8988 60 30.7227Z" stroke="#E4E4E4" strokeWidth="1.5" strokeLinecap="round" strokeLinejoin="round"/>
<path d="M32.9585 40.5563L42.7918 30.723M42.7918 30.723L32.9585 20.8896M42.7918 30.723H18.2085" stroke="black" strokeWidth="1.5" strokeLinecap="round" strokeLinejoin="round"/>
</svg>
