<svg width="72" height="50" viewBox="0 0 72 50" fill="none" xmlns="http://www.w3.org/2000/svg">
<g clip-path="url(#clip0_306_1252)">
<path d="M0.0920562 0.647005V9.5749C4.70291 9.57202 9.20008 11.0142 12.9583 13.701C14.9023 15.0871 16.6143 16.7759 18.0299 18.7039C17.8863 18.7039 17.7837 18.7039 17.6914 18.7039C14.2198 18.2113 10.6855 18.9401 7.68666 20.767C5.73715 21.8858 4.05921 23.4263 2.77414 25.2772C1.48908 27.1281 0.629019 29.243 0.256153 31.4691C-0.494325 35.527 0.373084 39.7189 2.67087 43.1387C4.96866 46.5585 8.51223 48.9314 12.5356 49.7445C16.5589 50.5576 20.7388 49.7456 24.1716 47.484C27.6044 45.2223 30.0145 41.6928 30.8807 37.6583C31.1111 36.6042 31.2348 35.5294 31.2499 34.4503C31.2499 33.8674 31.2756 33.2795 31.3012 32.6967C31.3509 31.0553 31.2617 29.4127 31.0345 27.7866C30.7041 25.2544 30.0563 22.7745 29.1064 20.406C26.5177 13.8347 21.7905 8.34021 15.6966 4.81955C12.649 3.02248 9.31123 1.77776 5.83544 1.14214C4.07871 0.816521 2.29853 0.635404 0.512554 0.600586L0.174105 0.600586C0.174105 0.600586 0.13308 0.626374 0.0920562 0.647005Z" fill="#004085"/>
<path d="M40.2699 0.647005V9.55427C47.685 9.73479 53.6335 12.7881 58.1769 18.6214L58.1461 18.7246L57.2334 18.6524C53.3507 18.2959 49.4756 19.4103 46.3672 21.7773C43.2588 24.1442 41.1411 27.5932 40.4288 31.4485C39.6879 35.4801 40.5427 39.6432 42.8109 43.0498C45.079 46.4563 48.581 48.8365 52.5696 49.6824C56.5582 50.5283 60.7176 49.7731 64.1602 47.5778C67.6029 45.3824 70.0563 41.9209 70.997 37.9317C71.223 37.0228 71.3553 36.093 71.3918 35.1569C71.438 33.9397 71.52 32.7225 71.4944 31.5052C71.4048 26.1622 69.9621 20.9304 67.3025 16.3043C64.6429 11.6782 60.8544 7.81061 56.2949 5.06711C53.2899 3.23906 49.9938 1.94616 46.5517 1.24529C44.5921 0.840367 42.5985 0.624486 40.5981 0.600586L40.3519 0.600586L40.2699 0.647005Z" fill="#004085"/>
</g>
<defs>
<clipPath id="clip0_306_1252">
<rect width="71.5" height="49.4" fill="white" transform="translate(0 0.599609)"/>
</clipPath>
</defs>
</svg>
